<svg width="20" height="20" viewBox="0 0 20 20" fill="none" xmlns="http://www.w3.org/2000/svg">
<path d="M18.9048 5.28174C18.8781 5.13669 18.8211 4.99888 18.7376 4.87726C18.6541 4.75565 18.546 4.65294 18.4202 4.57582L15.6509 7.34414C15.5217 7.4781 15.3669 7.58466 15.1956 7.65744C15.0243 7.73022 14.8401 7.76773 14.6539 7.76773C14.4678 7.76773 14.2836 7.73022 14.1123 7.65744C13.941 7.58466 13.7861 7.4781 13.657 7.34414L12.6046 6.40291C12.3509 6.14417 12.2088 5.79631 12.2088 5.434C12.2088 5.07169 12.3509 4.72382 12.6046 4.46508L15.374 1.69676C15.3136 1.55493 15.2227 1.42811 15.1079 1.32526C14.993 1.22241 14.857 1.14604 14.7093 1.10157C13.7431 0.908948 12.7421 0.9914 11.8205 1.33954C10.8988 1.68768 10.0934 2.28751 9.49603 3.07075C8.89865 3.85399 8.53327 4.78916 8.44148 5.7698C8.34969 6.75044 8.53518 7.73714 8.97684 8.61757L1.41661 16.1059C1.28473 16.2348 1.17994 16.3887 1.1084 16.5587C1.03685 16.7287 1 16.9112 1 17.0956C1 17.28 1.03685 17.4625 1.1084 17.6324C1.17994 17.8024 1.28473 17.9563 1.41661 18.0852L1.91509 18.5835C2.04404 18.7154 2.19805 18.8201 2.36806 18.8916C2.53807 18.9632 2.72066 19 2.90512 19C3.08957 19 3.27216 18.9632 3.44217 18.8916C3.61219 18.8201 3.76619 18.7154 3.89515 18.5835L11.4554 11.0399C12.3364 11.4594 13.3165 11.6265 14.2868 11.5225C15.2571 11.4186 16.1795 11.0476 16.9515 10.4509C17.7235 9.85416 18.3148 9.05508 18.6596 8.14252C19.0045 7.22995 19.0894 6.23965 18.9048 5.28174V5.28174Z" stroke="#000001" stroke-linecap="round" stroke-linejoin="round"/>
</svg>
