<svg width="18" height="19" viewBox="0 0 18 19" fill="none" xmlns="http://www.w3.org/2000/svg">
<path d="M6.95837 14.7783L8.12504 18" stroke="#000001" stroke-linecap="round" stroke-linejoin="round"/>
<path d="M2.02771 1.23309L2.49993 2.5218" stroke="#000001" stroke-linecap="round" stroke-linejoin="round"/>
<path d="M6.95839 14.7783L4.52783 14.1888" stroke="#000001" stroke-linecap="round" stroke-linejoin="round"/>
<path d="M6.95837 14.7782L8.44448 12.7903" stroke="#000001" stroke-linecap="round" stroke-linejoin="round"/>
<path d="M5.77772 11.5565L3.34717 10.9532" stroke="#000001" stroke-linecap="round" stroke-linejoin="round"/>
<path d="M5.77771 11.5564L7.27771 9.56854" stroke="#000001" stroke-linecap="round" stroke-linejoin="round"/>
<path d="M4.6111 8.32096L2.18054 7.73145" stroke="#000001" stroke-linecap="round" stroke-linejoin="round"/>
<path d="M4.61108 8.321L6.09719 6.3468" stroke="#000001" stroke-linecap="round" stroke-linejoin="round"/>
<path d="M3.43056 5.09922L1 4.5097" stroke="#000001" stroke-linecap="round" stroke-linejoin="round"/>
<path d="M3.43054 5.0992L4.93054 3.1113" stroke="#000001" stroke-linecap="round" stroke-linejoin="round"/>
<path d="M12.486 13.9557L11.7083 17.0403" stroke="#000001" stroke-linecap="round" stroke-linejoin="round"/>
<path d="M15.7361 1L15.4305 2.23387" stroke="#000001" stroke-linecap="round" stroke-linejoin="round"/>
<path d="M12.4862 13.9556L10.9167 12.2556" stroke="#000001" stroke-linecap="round" stroke-linejoin="round"/>
<path d="M12.4861 13.9557L14.6666 13.1879" stroke="#000001" stroke-linecap="round" stroke-linejoin="round"/>
<path d="M13.2501 10.871L11.6946 9.17096" stroke="#000001" stroke-linecap="round" stroke-linejoin="round"/>
<path d="M13.2501 10.871L15.4446 10.0895" stroke="#000001" stroke-linecap="round" stroke-linejoin="round"/>
<path d="M14.0278 7.78627L12.4723 6.08627" stroke="#000001" stroke-linecap="round" stroke-linejoin="round"/>
<path d="M14.0278 7.7863L16.2223 7.00485" stroke="#000001" stroke-linecap="round" stroke-linejoin="round"/>
<path d="M14.8057 4.70159L13.2501 3.00159" stroke="#000001" stroke-linecap="round" stroke-linejoin="round"/>
<path d="M14.8057 4.70162L17.0001 3.92017" stroke="#000001" stroke-linecap="round" stroke-linejoin="round"/>
</svg>
