<svg width="20" height="20" viewBox="0 0 20 20" fill="none" xmlns="http://www.w3.org/2000/svg">
<path d="M17.6154 5.5H2.38462C1.61991 5.5 1 6.17157 1 7V17.5C1 18.3284 1.61991 19 2.38462 19H17.6154C18.3801 19 19 18.3284 19 17.5V7C19 6.17157 18.3801 5.5 17.6154 5.5Z" stroke="#000001" stroke-linecap="round" stroke-linejoin="round"/>
<path d="M1 11.5H19" stroke="#000001" stroke-linecap="round" stroke-linejoin="round"/>
<path d="M10 10V13" stroke="#000001" stroke-linecap="round" stroke-linejoin="round"/>
<path d="M14.1539 5.5C14.1539 4.30653 13.7162 3.16193 12.9373 2.31802C12.1583 1.47411 11.1017 1 10 1V1C8.89837 1 7.84182 1.47411 7.06282 2.31802C6.28383 3.16193 5.84619 4.30653 5.84619 5.5" stroke="#000001" stroke-linecap="round" stroke-linejoin="round"/>
</svg>
