<svg width="20" height="20" viewBox="0 0 20 20" fill="none" xmlns="http://www.w3.org/2000/svg">
<path d="M5.15381 19L9.5015 8.85077C9.5425 8.75236 9.61172 8.66829 9.70042 8.60916C9.78913 8.55002 9.89335 8.51846 9.99996 8.51846C10.1066 8.51846 10.2108 8.55002 10.2995 8.60916C10.3882 8.66829 10.4574 8.75236 10.4984 8.85077L14.8461 19" stroke="#000001" stroke-linecap="round" stroke-linejoin="round"/>
<path d="M7.1062 14.4446H12.8939" stroke="#000001" stroke-linecap="round" stroke-linejoin="round"/>
<path d="M1 5.84615C1 4.56087 1.51058 3.32824 2.41941 2.41941C3.32824 1.51058 4.56087 1 5.84615 1" stroke="#000001" stroke-linecap="round" stroke-linejoin="round"/>
<path d="M1 5.84615C1 4.56087 1.51058 3.32824 2.41941 2.41941C3.32824 1.51058 4.56087 1 5.84615 1" stroke="#000001" stroke-linecap="round" stroke-linejoin="round"/>
<path d="M4.46155 5.84616C4.46155 5.47893 4.60743 5.12675 4.86709 4.86708C5.12676 4.60742 5.47894 4.46154 5.84616 4.46154" stroke="#000001" stroke-linecap="round" stroke-linejoin="round"/>
<path d="M4.46155 5.84616C4.46155 5.47893 4.60743 5.12675 4.86709 4.86708C5.12676 4.60742 5.47894 4.46154 5.84616 4.46154" stroke="#000001" stroke-linecap="round" stroke-linejoin="round"/>
<path d="M14.1538 1C15.4391 1 16.6717 1.51058 17.5806 2.41941C18.4894 3.32824 19 4.56087 19 5.84615" stroke="#000001" stroke-linecap="round" stroke-linejoin="round"/>
<path d="M14.1538 1C15.4391 1 16.6717 1.51058 17.5806 2.41941C18.4894 3.32824 19 4.56087 19 5.84615" stroke="#000001" stroke-linecap="round" stroke-linejoin="round"/>
<path d="M14.1538 4.46154C14.521 4.46154 14.8732 4.60742 15.1329 4.86708C15.3925 5.12675 15.5384 5.47893 15.5384 5.84616" stroke="#000001" stroke-linecap="round" stroke-linejoin="round"/>
<path d="M14.1538 4.46154C14.521 4.46154 14.8732 4.60742 15.1329 4.86708C15.3925 5.12675 15.5384 5.47893 15.5384 5.84616" stroke="#000001" stroke-linecap="round" stroke-linejoin="round"/>
</svg>
